<?xml version="1.0" standalone="no"?>
<!DOCTYPE svg PUBLIC "-//W3C//DTD SVG 20010904//EN"
 "http://www.w3.org/TR/2001/REC-SVG-20010904/DTD/svg10.dtd">
<svg version="1.0" xmlns="http://www.w3.org/2000/svg"
 width="512.000000pt" height="512.000000pt" viewBox="0 0 512.000000 512.000000"
 preserveAspectRatio="xMidYMid meet">
<metadata>
Created by potrace 1.14, written by Peter Selinger 2001-2017
</metadata>
<g transform="translate(0.000000,512.000000) scale(0.100000,-0.100000)"
fill="#000000" stroke="none">
<path d="M2460 4952 c-114 -64 -353 -202 -402 -232 -27 -16 -48 -26 -48 -22 0
4 -4 2 -8 -4 -4 -6 -50 -34 -102 -64 -52 -30 -98 -58 -102 -64 -4 -6 -8 -8 -8
-4 0 6 -152 -81 -175 -100 -5 -4 -14 -10 -20 -11 -5 -2 -18 -9 -28 -16 -18
-13 6 -30 203 -138 30 -17 57 -34 58 -39 2 -4 8 -8 13 -8 4 0 95 -50 201 -111
106 -62 213 -123 238 -137 25 -14 62 -36 82 -49 21 -12 42 -23 48 -23 5 0 10
-5 10 -11 0 -5 5 -7 10 -4 6 3 10 1 10 -4 0 -6 6 -11 14 -11 7 0 25 -10 40
-21 15 -12 29 -19 32 -17 2 3 3 257 2 566 l-3 560 -65 -36z"/>
<path d="M2590 4425 l0 -566 33 17 c17 9 44 25 60 36 15 11 27 16 27 11 0 -4
4 -3 8 3 4 6 39 28 77 49 39 21 72 41 75 44 3 3 26 17 53 31 26 13 47 28 47
33 0 4 4 6 9 3 5 -3 20 3 34 14 13 11 35 24 48 30 13 6 38 19 54 29 31 20 72
44 135 77 19 11 37 22 40 25 3 3 30 19 60 35 30 16 57 32 60 35 3 4 25 17 50
29 25 12 47 26 50 31 3 4 18 13 34 19 28 10 28 11 10 24 -54 36 -329 191 -336
188 -4 -1 -8 2 -8 8 0 5 -15 16 -32 24 -18 8 -60 31 -93 51 -33 19 -75 43 -92
52 -18 9 -33 21 -33 25 0 5 -4 7 -9 4 -4 -3 -19 3 -31 14 -13 11 -28 20 -33
20 -6 0 -18 6 -26 14 -9 7 -36 24 -61 37 -25 13 -48 29 -52 34 -5 7 -8 7 -8 0
0 -6 -3 -6 -8 1 -4 5 -37 27 -74 48 l-68 37 0 -566z"/>
<path d="M1407 4344 c-20 -13 -37 -21 -37 -17 0 4 -4 3 -8 -3 -4 -6 -34 -26
-67 -45 -33 -18 -73 -42 -90 -51 -16 -10 -41 -24 -55 -30 -14 -7 -27 -15 -30
-18 -8 -8 -62 -39 -92 -52 -16 -7 -28 -16 -28 -20 0 -4 -6 -8 -14 -8 -7 0 -19
-7 -26 -15 -6 -8 -15 -14 -18 -12 -4 1 -18 -6 -32 -15 -14 -8 -70 -42 -125
-73 -162 -94 -187 -108 -267 -154 l-77 -44 62 -37 c73 -43 303 -176 355 -206
113 -63 139 -78 162 -94 14 -9 33 -20 42 -23 10 -4 43 -22 73 -42 31 -19 60
-35 65 -35 6 0 10 -5 10 -11 0 -5 4 -8 9 -4 5 3 15 -1 23 -8 7 -7 33 -24 58
-38 25 -13 47 -26 50 -29 3 -3 26 -16 51 -29 44 -23 46 -26 43 -65 -3 -57 -3
-58 -14 -51 -5 3 -10 1 -10 -4 0 -6 -7 -11 -15 -11 -8 0 -15 -3 -15 -8 0 -4
-17 -15 -37 -25 -21 -9 -56 -28 -78 -42 -22 -14 -47 -28 -55 -32 -8 -4 -38
-22 -67 -40 -29 -18 -56 -33 -62 -33 -5 0 -16 -6 -23 -13 -7 -7 -30 -21 -50
-30 -21 -10 -38 -23 -38 -29 0 -6 -3 -9 -6 -5 -3 3 -72 -33 -152 -80 -81 -47
-165 -95 -187 -106 -22 -12 -42 -24 -45 -27 -3 -4 -29 -19 -57 -35 -53 -28
-67 -45 -38 -45 8 0 15 -5 15 -10 0 -6 3 -9 8 -8 4 1 18 -5 32 -14 55 -35 152
-88 161 -88 5 0 9 -3 9 -7 0 -5 10 -13 23 -18 34 -16 111 -59 117 -66 3 -3 57
-34 120 -69 63 -35 117 -66 120 -70 3 -3 16 -11 30 -18 14 -7 46 -24 71 -40
72 -42 202 -117 214 -121 5 -2 14 -9 20 -15 13 -14 17 -99 5 -91 -6 4 -10 2
-10 -3 0 -6 -12 -15 -27 -21 -16 -6 -41 -19 -58 -30 -83 -51 -226 -131 -235
-131 -5 0 -10 -4 -10 -10 0 -5 -11 -12 -25 -16 -14 -3 -25 -10 -25 -15 0 -5
-4 -9 -9 -9 -5 0 -94 -50 -199 -110 -105 -61 -195 -110 -201 -110 -6 0 -11 -4
-11 -10 0 -5 -7 -10 -15 -10 -8 0 -15 -4 -15 -8 0 -5 -16 -14 -35 -22 -19 -8
-35 -16 -35 -19 0 -3 -18 -15 -40 -25 -22 -11 -40 -26 -40 -34 0 -9 3 -13 6
-9 3 3 29 -8 57 -25 88 -52 220 -128 223 -128 1 0 39 -22 84 -50 45 -27 83
-50 85 -50 2 0 36 -19 77 -43 40 -24 93 -55 118 -69 25 -14 85 -48 133 -77 49
-28 93 -51 98 -51 5 0 9 -4 9 -10 0 -5 5 -10 10 -10 6 0 28 -11 50 -25 22 -14
43 -25 47 -25 5 0 8 257 7 571 0 313 3 572 7 574 4 3 18 -4 31 -14 l24 -20 -1
-548 c0 -301 1 -551 3 -555 2 -5 16 -1 32 7 17 9 33 15 36 14 4 0 10 3 13 8 3
5 44 31 91 58 47 27 88 54 92 60 4 5 8 7 8 2 0 -4 12 0 26 10 36 23 81 49 132
75 23 12 42 26 42 31 0 4 5 5 10 2 6 -3 10 -1 10 5 0 6 5 8 10 5 6 -3 10 -1
10 4 0 6 6 11 14 11 7 0 19 7 26 15 7 8 16 12 21 9 5 -3 9 -2 9 3 0 4 21 19
48 33 26 13 49 27 52 30 3 3 14 10 25 16 108 59 141 79 147 88 4 6 8 8 8 4 0
-4 17 4 37 18 51 34 77 39 111 19 27 -17 32 -17 62 -1 37 18 70 21 70 6 0 -5
4 -10 10 -10 5 0 33 -14 62 -31 66 -40 96 -57 178 -103 36 -21 69 -42 74 -47
6 -5 16 -9 23 -9 8 0 24 -9 36 -20 12 -12 32 -23 44 -26 13 -4 23 -10 23 -15
0 -5 5 -9 10 -9 6 0 40 -18 76 -40 36 -22 68 -40 70 -40 2 0 33 -18 69 -40 36
-22 68 -40 71 -40 3 0 25 -14 50 -30 24 -17 44 -28 44 -24 0 4 8 0 18 -8 15
-14 76 -48 84 -48 2 0 3 252 2 559 l-1 559 26 13 c14 7 28 14 31 15 3 1 5
-256 4 -572 l0 -574 20 6 c12 4 37 17 56 30 19 13 40 24 47 24 7 0 13 5 13 10
0 6 4 10 9 10 4 0 58 29 119 64 61 35 113 62 116 59 3 -4 6 -1 6 5 0 7 17 20
38 30 20 9 39 20 42 23 3 4 28 18 55 33 28 14 75 41 106 59 30 17 86 50 125
71 38 22 71 42 74 45 3 3 34 21 70 40 36 19 67 37 70 41 3 4 13 9 23 13 27 10
20 24 -23 43 -22 10 -40 22 -40 28 0 5 -3 6 -6 3 -4 -4 -19 2 -33 12 -14 10
-43 28 -63 40 -21 11 -53 29 -70 40 -18 10 -136 78 -263 151 -126 73 -246 143
-265 155 -19 12 -42 25 -50 28 -8 4 -33 18 -55 32 -22 14 -55 32 -72 41 -18 9
-34 20 -34 25 -10 73 -4 83 81 128 25 14 54 29 65 35 11 6 22 14 25 17 3 3 25
16 50 30 25 13 47 26 50 29 3 3 16 11 30 18 14 6 39 20 55 30 17 9 60 35 98
56 37 21 67 43 67 49 0 5 3 7 6 4 6 -6 62 20 74 34 3 3 10 8 15 10 9 4 100 55
195 111 19 11 53 30 75 41 86 47 86 48 -17 107 -51 30 -118 67 -148 84 -30 16
-57 32 -60 35 -3 3 -18 13 -35 21 -16 8 -37 19 -45 26 -8 6 -40 24 -70 40 -30
16 -56 32 -58 37 -2 4 -8 7 -12 7 -5 0 -33 14 -62 31 -29 18 -78 45 -108 62
-30 16 -62 35 -70 42 -8 7 -25 16 -37 19 -13 4 -23 12 -23 17 0 5 -5 9 -11 9
-6 0 -23 9 -39 20 -15 11 -30 17 -34 13 -3 -3 -6 -2 -6 4 0 6 -12 15 -28 21
-23 8 -28 15 -29 51 -1 24 3 41 9 41 6 0 9 3 5 6 -3 3 13 16 36 29 58 31 108
59 207 117 47 28 110 65 140 83 30 18 85 49 123 69 37 21 67 42 67 47 0 6 4 8
9 4 5 -3 26 6 46 19 20 14 45 28 56 31 10 4 19 11 19 16 0 5 6 9 14 9 7 0 25
9 38 20 14 10 28 17 30 14 3 -2 11 2 18 11 7 8 16 15 21 15 4 0 37 18 71 40
35 22 69 40 76 40 6 0 12 4 12 9 0 12 -16 23 -80 57 -30 16 -57 32 -60 35 -3
3 -21 14 -40 24 -19 9 -43 24 -53 33 -9 8 -17 12 -17 8 0 -4 -19 6 -42 22 -24
16 -77 48 -118 71 -41 23 -91 51 -110 63 -19 11 -98 56 -175 100 -150 87 -170
98 -256 146 l-55 32 0 -580 c1 -319 -2 -580 -6 -580 -5 0 -8 5 -8 10 0 6 -7
10 -15 10 -8 0 -18 8 -23 18 -5 9 -10 255 -10 552 0 294 -1 543 -1 553 -1 15
-4 16 -23 5 -13 -7 -25 -16 -28 -19 -3 -4 -29 -19 -58 -35 -30 -16 -70 -39
-90 -51 -45 -26 -72 -41 -137 -78 -27 -15 -67 -39 -87 -52 -21 -12 -42 -23
-48 -23 -5 0 -10 -4 -10 -8 0 -4 -12 -13 -27 -20 -16 -7 -41 -20 -58 -30 -136
-78 -205 -118 -235 -137 -19 -12 -65 -38 -102 -59 l-67 -36 -34 19 c-33 18
-34 18 -73 -1 -32 -16 -42 -17 -59 -7 -66 41 -258 149 -265 149 -5 0 -10 4
-12 8 -1 5 -39 28 -83 52 -44 24 -83 48 -87 54 -4 6 -8 7 -8 2 0 -5 -8 -2 -17
6 -10 9 -36 25 -58 37 -22 12 -57 32 -77 44 -21 12 -61 35 -90 51 -29 16 -65
37 -80 47 -14 11 -29 19 -32 19 -3 0 -35 18 -71 40 -38 24 -65 35 -66 27 0 -6
-1 -259 -2 -562 l-2 -549 -22 -12 c-13 -6 -20 -14 -16 -18 4 -4 0 -4 -8 -1
-14 5 -15 71 -15 571 1 311 -1 570 -4 575 -3 5 -23 -3 -43 -17z"/>
<path d="M400 3164 c0 -500 2 -565 15 -560 8 3 59 31 113 63 53 32 100 58 104
58 4 0 17 8 28 18 11 9 23 17 26 17 3 0 43 23 90 50 47 28 89 50 94 50 6 0 10
4 10 8 0 4 12 13 28 20 29 13 59 30 140 80 29 17 54 32 57 32 2 0 44 24 92 53
48 28 109 63 136 77 49 26 54 38 21 55 -10 6 -63 36 -116 68 -53 31 -102 57
-107 57 -6 0 -11 4 -11 9 0 5 -8 11 -17 14 -20 7 -95 50 -134 78 -14 10 -28
16 -31 13 -3 -2 -11 2 -18 11 -7 8 -19 15 -26 15 -8 0 -14 5 -14 10 0 6 -5 10
-10 10 -13 0 -174 92 -178 102 -2 5 -8 8 -13 8 -9 0 -169 89 -179 100 -6 6
-90 50 -96 50 -2 0 -4 -255 -4 -566z"/>
<path d="M4685 3716 c-11 -6 -32 -19 -47 -29 -16 -10 -28 -15 -28 -10 0 4 -4
3 -8 -3 -4 -6 -27 -22 -52 -36 -25 -14 -133 -76 -240 -138 -107 -62 -211 -122
-230 -133 -19 -11 -48 -28 -65 -38 -16 -11 -41 -24 -55 -31 -14 -7 -48 -27
-77 -45 -29 -18 -57 -33 -63 -33 -5 0 -10 -4 -10 -10 0 -5 -3 -9 -7 -8 -5 1
-22 -7 -39 -17 l-31 -19 34 -23 c19 -13 35 -23 37 -23 2 0 54 -29 115 -65 62
-36 116 -65 121 -65 4 0 10 -4 12 -8 3 -8 192 -118 266 -156 20 -10 39 -21 42
-25 3 -3 30 -18 60 -33 30 -16 50 -28 46 -28 -4 0 16 -13 45 -29 102 -54 124
-66 129 -71 15 -15 69 -39 73 -33 10 18 4 339 -7 352 -7 10 -7 13 0 8 16 -9
16 612 0 632 -8 11 -8 13 1 8 8 -5 11 9 11 53 -1 34 -4 62 -7 64 -3 2 -15 -1
-26 -8z"/>
<path d="M4680 2511 c-14 -10 -50 -31 -80 -47 -30 -16 -57 -31 -60 -35 -3 -3
-41 -25 -85 -49 -44 -24 -81 -47 -83 -52 -2 -4 -12 -8 -23 -8 -10 0 -19 -4
-19 -8 0 -5 -18 -17 -40 -27 -22 -10 -40 -22 -40 -27 0 -4 -6 -8 -13 -8 -7 0
-29 -11 -50 -25 -20 -14 -37 -22 -37 -18 0 4 -4 3 -8 -3 -4 -6 -25 -21 -47
-33 -22 -11 -58 -32 -80 -46 -22 -13 -65 -38 -95 -55 -140 -78 -175 -99 -178
-108 -1 -5 59 -45 134 -88 75 -44 155 -90 178 -103 23 -13 73 -41 111 -63 39
-22 84 -48 100 -58 17 -9 57 -32 90 -50 33 -19 62 -36 65 -39 8 -9 83 -52 113
-64 15 -6 27 -15 27 -19 0 -4 7 -8 15 -8 8 0 15 -5 15 -11 0 -5 4 -8 9 -4 5 3
12 1 16 -5 7 -11 79 -50 93 -50 11 0 13 1098 3 1117 -4 8 -13 6 -31 -6z"/>
<path d="M400 1961 c0 -315 4 -562 9 -565 5 -3 14 1 21 9 7 8 16 15 21 15 5 0
42 19 82 43 130 78 172 101 178 100 4 -1 15 7 24 17 10 11 22 20 26 20 7 0
212 115 249 140 8 6 29 17 45 25 17 9 44 24 60 34 39 24 91 54 135 77 19 11
40 25 48 32 7 6 20 12 28 12 8 0 14 4 14 9 0 5 9 11 20 14 31 8 24 22 -25 48
-25 13 -45 28 -45 32 0 5 -4 6 -9 2 -5 -3 -12 -1 -16 4 -3 6 -26 20 -50 32
-25 12 -45 26 -45 31 0 4 -3 7 -7 6 -5 -2 -83 41 -175 95 -92 53 -170 97 -174
97 -3 0 -25 14 -49 30 -24 17 -46 30 -48 30 -3 0 -35 18 -71 40 -36 22 -70 40
-76 40 -5 0 -10 5 -10 10 0 6 -5 10 -11 10 -6 0 -37 16 -69 35 -32 19 -63 35
-69 35 -8 0 -11 -153 -11 -559z"/>
<path d="M2522 1262 c-1 -7 -6 -10 -12 -7 -5 3 -10 1 -10 -4 0 -6 -6 -11 -14
-11 -8 0 -21 -6 -28 -12 -7 -7 -31 -22 -53 -33 -22 -11 -42 -22 -45 -26 -3 -3
-30 -19 -60 -35 -30 -17 -100 -57 -155 -89 -241 -141 -338 -195 -346 -195 -5
0 -9 -4 -9 -10 0 -5 -4 -10 -10 -10 -5 0 -50 -24 -100 -54 -50 -30 -100 -58
-110 -61 -30 -10 -18 -19 135 -105 22 -13 52 -30 67 -39 168 -99 400 -231 408
-231 5 0 10 -4 10 -8 0 -4 26 -21 58 -37 31 -17 63 -36 70 -42 7 -7 24 -16 38
-19 13 -3 24 -10 24 -15 0 -5 6 -9 14 -9 8 0 16 -3 18 -7 4 -11 108 -66 114
-61 2 3 3 259 1 569 -1 310 -3 558 -5 551z"/>
<path d="M2590 695 c0 -311 2 -565 4 -565 3 0 11 6 18 13 7 6 29 20 48 30 78
40 165 90 178 103 7 8 17 14 22 14 12 0 134 73 138 82 2 5 12 8 22 8 10 0 21
4 24 8 7 12 163 102 176 102 5 0 10 4 10 8 0 5 24 21 53 36 92 48 132 71 135
79 2 4 10 7 18 7 8 0 14 5 14 10 0 6 5 10 10 10 6 0 33 13 61 29 l50 28 -49
31 c-27 17 -80 47 -118 68 -38 21 -75 44 -82 51 -7 7 -17 13 -22 13 -8 0 -47
22 -180 100 -8 5 -44 26 -80 46 -36 20 -68 41 -72 48 -4 6 -8 7 -8 3 0 -5 -12
0 -27 11 -38 26 -329 192 -337 192 -3 0 -6 -254 -6 -565z"/>
</g>
</svg>
